<?xml version="1.0" encoding="UTF-8" standalone="no"?>
<!-- Created with Inkscape (http://www.inkscape.org/) -->

<svg
   xmlns:dc="http://purl.org/dc/elements/1.1/"
   xmlns:cc="http://creativecommons.org/ns#"
   xmlns:rdf="http://www.w3.org/1999/02/22-rdf-syntax-ns#"
   xmlns:svg="http://www.w3.org/2000/svg"
   xmlns="http://www.w3.org/2000/svg"
   xmlns:xlink="http://www.w3.org/1999/xlink"
   xmlns:sodipodi="http://sodipodi.sourceforge.net/DTD/sodipodi-0.dtd"
   xmlns:inkscape="http://www.inkscape.org/namespaces/inkscape"
   width="202.52771mm"
   height="93.273018mm"
   viewBox="0 0 202.52771 93.273018"
   version="1.1"
   id="svg8"
   inkscape:version="0.92.3 (2405546, 2018-03-11)"
   sodipodi:docname="griffin+_logo_with_text.svg">
  <defs
     id="defs2">
    <inkscape:path-effect
       effect="bspline"
       id="path-effect4883"
       is_visible="true"
       weight="33.333333"
       steps="2"
       helper_size="0"
       apply_no_weight="true"
       apply_with_weight="true"
       only_selected="false" />
    <inkscape:path-effect
       effect="bspline"
       id="path-effect4762"
       is_visible="true"
       weight="33.333333"
       steps="2"
       helper_size="0"
       apply_no_weight="true"
       apply_with_weight="true"
       only_selected="false" />
    <inkscape:path-effect
       effect="bspline"
       id="path-effect4755"
       is_visible="true"
       weight="33.333333"
       steps="2"
       helper_size="0"
       apply_no_weight="true"
       apply_with_weight="true"
       only_selected="false" />
    <inkscape:path-effect
       effect="bspline"
       id="path-effect4748"
       is_visible="true"
       weight="33.333333"
       steps="2"
       helper_size="0"
       apply_no_weight="true"
       apply_with_weight="true"
       only_selected="false" />
    <inkscape:path-effect
       effect="bspline"
       id="path-effect4691"
       is_visible="true"
       weight="33.333333"
       steps="2"
       helper_size="0"
       apply_no_weight="true"
       apply_with_weight="true"
       only_selected="false" />
    <linearGradient
       y2="22875"
       x2="23127.5"
       y1="4471.1099"
       x1="33985.801"
       gradientUnits="userSpaceOnUse"
       id="id0"
       gradientTransform="matrix(0.00510579,0,0,0.00510579,-100.30053,-23.885019)">
      <stop
         id="stop187"
         style="stop-color:#E9363B"
         offset="0" />
      <stop
         id="stop189"
         style="stop-color:#E9363B"
         offset="0.0705882" />
      <stop
         id="stop191"
         style="stop-color:#883032"
         offset="1" />
    </linearGradient>
    <linearGradient
       inkscape:collect="always"
       id="linearGradient2434">
      <stop
         style="stop-color:#282828;stop-opacity:1"
         offset="0"
         id="stop2430" />
      <stop
         style="stop-color:#b42828;stop-opacity:1"
         offset="1"
         id="stop2432" />
    </linearGradient>
    <linearGradient
       inkscape:collect="always"
       xlink:href="#linearGradient2434"
       id="linearGradient1051"
       gradientUnits="userSpaceOnUse"
       x1="96.230675"
       y1="193.31335"
       x2="96.230667"
       y2="44.899578"
       gradientTransform="matrix(0.62582594,0,0,0.63287311,-9.9528179,60.886347)" />
    <linearGradient
       inkscape:collect="always"
       xlink:href="#linearGradient2434"
       id="linearGradient1040"
       x1="361.13425"
       y1="712.84131"
       x2="361.13425"
       y2="452.84134"
       gradientUnits="userSpaceOnUse"
       gradientTransform="matrix(0.26458333,0,0,0.26458333,-45.309403,-13.2679)" />
  </defs>
  <sodipodi:namedview
     id="base"
     pagecolor="#ffffff"
     bordercolor="#666666"
     borderopacity="1.0"
     inkscape:pageopacity="0.0"
     inkscape:pageshadow="2"
     inkscape:zoom="0.7"
     inkscape:cx="472.93178"
     inkscape:cy="-41.243118"
     inkscape:document-units="mm"
     inkscape:current-layer="layer1"
     showgrid="false"
     inkscape:window-width="1920"
     inkscape:window-height="1017"
     inkscape:window-x="-8"
     inkscape:window-y="-8"
     inkscape:window-maximized="1"
     showguides="true"
     inkscape:guide-bbox="true">
    <inkscape:grid
       type="xygrid"
       id="grid4697"
       originx="-3.61195"
       originy="-113.82334" />
    <sodipodi:guide
       position="46.65888,7.884985"
       orientation="1,0"
       id="guide4879"
       inkscape:locked="false" />
    <sodipodi:guide
       position="-0.96611661,46.249563"
       orientation="0,1"
       id="guide4897"
       inkscape:locked="false" />
  </sodipodi:namedview>
  <metadata
     id="metadata5">
    <rdf:RDF>
      <cc:Work
         rdf:about="">
        <dc:format>image/svg+xml</dc:format>
        <dc:type
           rdf:resource="http://purl.org/dc/dcmitype/StillImage" />
        <dc:title />
      </cc:Work>
    </rdf:RDF>
  </metadata>
  <g
     inkscape:label="Ebene 1"
     inkscape:groupmode="layer"
     id="layer1"
     transform="translate(-3.6119498,-89.903622)">
    <circle
       style="opacity:1;fill:#ffffff;fill-opacity:1;fill-rule:evenodd;stroke:url(#linearGradient1051);stroke-width:3.14669824;stroke-linecap:round;stroke-linejoin:round;stroke-miterlimit:4;stroke-dasharray:none;stroke-dashoffset:50;stroke-opacity:1;paint-order:normal"
       id="path817-3"
       cx="50.248459"
       cy="136.54013"
       r="45.06316" />
    <path
       style="opacity:1;fill:#000000;fill-opacity:0;fill-rule:evenodd;stroke:#c10707;stroke-width:0;stroke-linecap:butt;stroke-linejoin:round;stroke-miterlimit:4;stroke-dasharray:none;stroke-dashoffset:188.97637939;stroke-opacity:1;paint-order:markers fill stroke"
       d="m 63.921693,129.16036 c -0.112789,0.0299 0.0786,0.20879 0,0 z"
       id="path1139"
       inkscape:connector-curvature="0"
       sodipodi:nodetypes="cc" />
    <path
       style="opacity:1;fill:#000000;fill-opacity:0;fill-rule:evenodd;stroke:#c10707;stroke-width:0;stroke-linecap:butt;stroke-linejoin:round;stroke-miterlimit:4;stroke-dasharray:none;stroke-dashoffset:188.97637939;stroke-opacity:1;paint-order:markers fill stroke"
       d="m 63.921693,129.16036 c -0.112789,0.0299 0.0786,0.20879 0,0 z"
       id="path1143"
       inkscape:connector-curvature="0"
       sodipodi:nodetypes="cc" />
    <g
       aria-label="Griffin"
       style="font-style:normal;font-weight:normal;font-size:25.39999962px;line-height:1.25;font-family:sans-serif;letter-spacing:0px;word-spacing:0px;fill:#8c1e1e;fill-opacity:1;stroke:none;stroke-width:0.26458332"
       id="text837"
       transform="translate(-1.8253999,34.032288)">
      <path
         d="m 116.58423,95.726265 -2.31924,4.564065 q -0.22324,-1.94717 -1.22783,-2.976565 -0.99219,-1.029394 -2.6293,-1.029394 -2.33164,0 -3.63388,1.810742 -1.28985,1.810742 -1.28985,5.072557 0,7.18096 5.87871,7.18096 h 1.99678 v -6.43682 h -3.12539 q -1.01699,0 -1.46348,-0.11162 -0.43408,-0.11162 -0.84336,-0.48369 v -0.31006 q 0.44649,0.33486 0.89297,0.44649 0.44649,0.0992 1.45108,0.0992 h 3.08818 v -0.66972 h -3.44785 -0.55811 q -1.84795,0 -1.84795,-1.33946 0,-0.52089 0.31006,-0.89296 0.31006,-0.37207 0.74414,-0.37207 0.32246,0 0.55811,0.23564 0.24805,0.23564 0.24805,0.55811 0,0.5457 -0.39688,0.63251 l -0.29766,0.062 q -0.14882,0.0372 -0.14882,0.12402 0,0.16123 0.40927,0.16123 h 0.42168 8.18555 l -1.71152,1.67432 v 6.11435 l 1.5875,1.36426 h -6.3376 -1.25264 q -1.5751,0 -2.60449,-0.38447 -1.02939,-0.38448 -2.08359,-1.36426 -2.49287,-2.28203 -2.49287,-6.11436 0,-3.956343 2.35644,-6.176363 2.05879,-1.947168 4.88652,-1.947168 1.26504,0 2.90215,0.446484 1.67432,0.458887 2.20762,0.458887 0.78135,0 1.5875,-0.396875 z m 0.74414,0.781348 -2.1208,4.167187 -0.29766,-0.13643 2.13321,-4.179585 z m -3.96875,1.885156 -0.22324,-0.16123 q -1.41387,-1.00459 -2.57969,-1.00459 -1.41387,0 -2.44326,1.00459 -0.74414,0.74414 -1.079,1.947171 -0.32247,1.20302 -0.32247,3.175 0,2.50527 0.4961,3.83232 0.49609,1.32705 1.82314,2.39365 v 0.13643 q -1.43867,-0.85576 -2.07119,-2.40606 -0.63252,-1.56269 -0.63252,-4.2292 0,-2.93935 1.10381,-4.564057 1.10381,-1.63711 3.10059,-1.63711 1.73632,0 2.82773,1.438672 z m 4.71289,4.365621 -1.27744,1.27745 v 5.81669 l 2.05879,2.36885 -4.92373,-0.0372 -4.46485,0.0496 q -0.42168,0 -0.64492,-0.0248 -0.78134,-0.0868 -1.57509,-0.68213 h 0.26044 q 0.84336,0.37207 2.30684,0.37207 l 0.62012,-0.0124 h 7.72666 l -1.71153,-1.89756 v -6.07715 l 1.42627,-1.43867 z"
         style="font-style:normal;font-variant:normal;font-weight:normal;font-stretch:normal;font-size:25.39999962px;font-family:Algerian;-inkscape-font-specification:Algerian;fill:#8c1e1e;fill-opacity:1;stroke-width:0.26458332"
         id="path885"
         inkscape:connector-curvature="0" />
      <path
         d="m 120.45376,96.780464 q 2.93936,-1.699121 6.3252,-1.699121 2.62929,0 4.32841,1.141016 1.71153,1.141016 1.71153,2.902148 0,1.438673 -1.11621,2.554883 -1.11621,1.10381 -3.05098,1.5999 0.85576,2.35645 2.31924,4.58887 1.47588,2.23242 2.95176,3.42305 l -0.18604,0.062 q -1.84795,0.63252 -3.62148,1.78594 l -0.18604,0.12402 -0.062,-0.39688 q -0.79375,-4.7997 -2.22002,-8.13593 l -0.0496,-0.12403 q -0.85576,0.39688 -2.29443,0.63252 l -0.0992,0.0124 v 4.63847 l 2.18281,2.33164 h -6.41201 l -0.19844,-0.33486 h 5.90352 l -1.79834,-1.90996 v -4.99815 l 0.26045,-0.0372 q 1.41386,-0.14883 2.36884,-0.55811 -0.0744,-0.14883 -0.0868,-0.18603 l -0.12403,-0.35967 q -0.0124,-0.0372 -0.062,-0.14883 -0.76894,0.22324 -2.90215,0.48369 l -0.13642,0.0248 v 5.53144 l 1.41387,1.47588 h -5.48184 l 1.6123,-1.47588 v -4.16719 l -0.0992,0.0124 q -0.71934,0.16123 -1.30225,0.35966 l -0.0992,0.0372 -0.11162,-0.24805 q 0.5457,-0.21084 0.85576,-0.28525 l 0.65733,-0.16123 0.0992,-0.0248 v -0.64493 q -0.73173,0 -1.82314,0.32246 l -0.13643,0.0496 q 0.0248,-0.17363 0.24805,-0.80615 0.0248,-0.0496 0.17363,-0.5581 0.0124,-0.0372 0.0372,-0.11163 0.55811,0.0372 0.86816,0.0372 0.33487,0 0.62012,-0.0372 v -6.101948 q -0.57051,-0.347266 -1.17822,-0.582911 z m 3.74551,-0.322461 v 6.684867 q 0.35967,0 0.68213,-0.062 v -6.101948 q 0.68213,-0.186035 1.63711,-0.186035 2.41845,0 3.28662,1.5875 -0.91778,-0.744141 -1.61231,-1.016992 -0.69453,-0.285254 -1.66191,-0.285254 -0.75654,0 -1.32705,0.148828 v 5.853901 l 0.13642,-0.0248 q 2.44327,-0.44648 3.62149,-1.40146 1.19062,-0.96739 1.19062,-2.505278 0,-1.37666 -1.0666,-2.269629 -1.0666,-0.905371 -2.69131,-0.905371 -1.30224,0 -2.19521,0.483691 z m 5.99033,7.441407 q 0.78135,2.55488 2.76572,4.99814 1.24024,1.52549 3.1378,2.74092 -2.84014,0.75654 -5.33301,2.30684 l -0.11162,0.0744 -0.24805,-0.19844 q 2.36885,-1.55029 5.04775,-2.28203 -3.57187,-2.38125 -5.61826,-7.61504 l -0.0744,-0.21084 q 3.79512,-1.43867 3.79512,-4.390425 0,-1.21543 -0.97979,-2.654102 1.25264,1.141016 1.25264,2.902149 0,2.852538 -3.63389,4.328418 z"
         style="font-style:normal;font-variant:normal;font-weight:normal;font-stretch:normal;font-size:25.39999962px;font-family:Algerian;-inkscape-font-specification:Algerian;fill:#8c1e1e;fill-opacity:1;stroke-width:0.26458332"
         id="path887"
         inkscape:connector-curvature="0" />
      <path
         d="m 135.9939,95.292183 h 5.87871 l -1.66192,1.686719 v 12.910838 l 1.5627,1.31465 h -5.77949 l 1.72392,-1.42627 V 96.842476 Z m 6.43681,0.706934 -1.26504,1.252636 v 12.637987 l 2.0836,2.33164 h -6.44922 l -0.31006,-0.33486 h 6.02754 l -1.69912,-1.87276 V 97.140132 l 1.40146,-1.389062 z"
         style="font-style:normal;font-variant:normal;font-weight:normal;font-stretch:normal;font-size:25.39999962px;font-family:Algerian;-inkscape-font-specification:Algerian;fill:#8c1e1e;fill-opacity:1;stroke-width:0.26458332"
         id="path889"
         inkscape:connector-curvature="0" />
      <path
         d="m 144.05542,95.292183 h 12.87363 q -0.76894,1.016992 -1.1038,1.599902 -0.32246,0.582911 -0.83096,1.872754 l -0.0992,0.248047 q -0.81855,-1.686718 -1.62471,-2.182812 -0.79375,-0.496094 -2.69131,-0.496094 l -0.70693,0.0124 -1.20303,-0.0124 -0.45888,-0.0124 v 5.80429 h 0.75654 v -5.122161 l 0.35967,-0.0124 q 0.76894,-0.03721 1.63711,-0.03721 2.53008,0 3.1626,1.314649 -0.60772,-0.582911 -1.32706,-0.781348 -0.70693,-0.21084 -2.19521,-0.21084 -0.5333,0 -1.32705,0.06201 v 4.7873 h 1.87275 l 1.98438,-2.09599 v 5.19658 l -2.0836,-2.05879 h -2.84013 v 6.25078 l 1.5875,1.61231 h -6.08955 l 2.02158,-1.61231 v -5.33301 q -0.95498,0 -1.67432,0.71934 l -0.23564,-0.26045 q 0.71933,-0.79375 1.90996,-0.79375 v -0.58291 q -0.26045,-0.0248 -0.37207,-0.0248 -1.15342,0 -1.99678,0.94257 l -0.0868,-0.19843 q 0.55811,-1.61231 2.45567,-1.76114 v -5.233785 z m 13.81621,0.756543 q -1.77353,2.071192 -2.23242,3.795117 l -0.26045,-0.173633 q 0.47129,-1.947167 2.26963,-3.832324 z m -3.83232,4.415234 v 5.35781 l -0.32246,-0.18603 v -5.35781 z m -2.22002,3.74551 h -2.54248 v 5.3082 l 2.18281,2.70371 h -7.18096 l -0.31005,-0.33486 h 6.79648 l -1.79834,-2.22002 v -5.7919 h 2.49287 z"
         style="font-style:normal;font-variant:normal;font-weight:normal;font-stretch:normal;font-size:25.39999962px;font-family:Algerian;-inkscape-font-specification:Algerian;fill:#8c1e1e;fill-opacity:1;stroke-width:0.26458332"
         id="path891"
         inkscape:connector-curvature="0" />
      <path
         d="m 158.04526,95.292183 h 12.87364 q -0.76895,1.016992 -1.10381,1.599902 -0.32246,0.582911 -0.83096,1.872754 l -0.0992,0.248047 q -0.81855,-1.686718 -1.62471,-2.182812 -0.79375,-0.496094 -2.6913,-0.496094 l -0.70694,0.0124 -1.20302,-0.0124 -0.45889,-0.0124 v 5.80429 h 0.75654 v -5.122161 l 0.35967,-0.0124 q 0.76894,-0.03721 1.63711,-0.03721 2.53008,0 3.1626,1.314649 -0.60772,-0.582911 -1.32705,-0.781348 -0.70694,-0.21084 -2.19522,-0.21084 -0.5333,0 -1.32705,0.06201 v 4.7873 h 1.87275 l 1.98438,-2.09599 v 5.19658 l -2.08359,-2.05879 h -2.84014 v 6.25078 l 1.5875,1.61231 H 157.698 l 2.02158,-1.61231 v -5.33301 q -0.95498,0 -1.67432,0.71934 l -0.23564,-0.26045 q 0.71934,-0.79375 1.90996,-0.79375 v -0.58291 q -0.26045,-0.0248 -0.37207,-0.0248 -1.15342,0 -1.99678,0.94257 l -0.0868,-0.19843 q 0.5581,-1.61231 2.45566,-1.76114 v -5.233785 z m 13.81621,0.756543 q -1.77353,2.071192 -2.23242,3.795117 L 169.3686,99.67021 q 0.47129,-1.947167 2.26963,-3.832324 z m -3.83232,4.415234 v 5.35781 l -0.32246,-0.18603 v -5.35781 z m -2.22002,3.74551 h -2.54248 v 5.3082 l 2.18281,2.70371 h -7.18095 l -0.31006,-0.33486 h 6.79648 l -1.79834,-2.22002 v -5.7919 h 2.49287 z"
         style="font-style:normal;font-variant:normal;font-weight:normal;font-stretch:normal;font-size:25.39999962px;font-family:Algerian;-inkscape-font-specification:Algerian;fill:#8c1e1e;fill-opacity:1;stroke-width:0.26458332"
         id="path893"
         inkscape:connector-curvature="0" />
      <path
         d="m 171.76226,95.292183 h 5.87871 l -1.66192,1.686719 v 12.910838 l 1.5627,1.31465 h -5.77949 l 1.72392,-1.42627 V 96.842476 Z m 6.43681,0.706934 -1.26504,1.252636 v 12.637987 l 2.0836,2.33164 h -6.44922 l -0.31006,-0.33486 h 6.02754 l -1.69912,-1.87276 V 97.140132 l 1.40146,-1.389062 z"
         style="font-style:normal;font-variant:normal;font-weight:normal;font-stretch:normal;font-size:25.39999962px;font-family:Algerian;-inkscape-font-specification:Algerian;fill:#8c1e1e;fill-opacity:1;stroke-width:0.26458332"
         id="path895"
         inkscape:connector-curvature="0" />
      <path
         d="m 193.702,95.292183 q -1.41386,0.731738 -1.82314,1.339453 -0.62012,0.942578 -0.62012,2.840137 v 0.806157 10.92646 h -2.09599 l -5.85391,-11.360547 v 6.734477 l -0.0124,0.5581 0.14883,1.78594 q 0.24804,1.24023 1.12861,1.83555 l 0.0992,0.0868 q -1.71152,-0.57051 -1.71152,-3.65869 l 0.0124,-1.16582 v -6.784082 l -0.66973,-1.302246 v 7.143748 q 0,3.39824 0.44649,4.45244 0.44648,1.0542 2.09599,1.53789 l 1.07901,1.15342 h -6.72207 l -0.19844,-0.33486 h 6.21357 l -0.64492,-0.68213 h -5.77949 q 1.51308,-0.5457 2.00918,-1.46348 0.49609,-0.91777 0.49609,-3.15019 v -9.921877 l -1.64951,-1.37666 h 6.27559 l -1.76114,1.178223 6.00274,11.707814 v -1.48828 l -5.14698,-10.021097 1.73633,-1.178222 0.23565,0.235644 -1.53789,1.041797 4.71289,9.252148 v -5.79189 -0.657328 q 0,-2.158008 -0.35967,-2.877344 -0.34727,-0.731738 -1.73633,-1.401465 z m 0.43409,0.917774 -0.22325,0.37207 q -0.95498,0.223242 -1.30224,0.830957 -0.33486,0.595312 -0.33486,2.021582 v 12.786814 h -2.66651 l -0.16123,-0.33486 h 2.49287 V 99.558589 q 0,-1.74873 0.44649,-2.430859 0.45888,-0.694531 1.74873,-0.917773 z"
         style="font-style:normal;font-variant:normal;font-weight:normal;font-stretch:normal;font-size:25.39999962px;font-family:Algerian;-inkscape-font-specification:Algerian;fill:#8c1e1e;fill-opacity:1;fill-rule:nonzero;stroke-width:0.26458332"
         id="path897"
         inkscape:connector-curvature="0" />
    </g>
    <g
       aria-label="+"
       style="font-style:normal;font-variant:normal;font-weight:normal;font-stretch:normal;font-size:25.39999962px;line-height:3.25;font-family:Algerian;-inkscape-font-specification:Algerian;letter-spacing:0px;word-spacing:0px;fill:#ff8801;fill-opacity:1;stroke:none;stroke-width:0.26458332"
       id="text4913"
       transform="matrix(0.99465359,0,0,0.99465359,3.1537047,1.4799764)">
      <path
         d="m 197.23094,130.90924 h 1.55029 v 4.41523 h 0.66973 v -3.7207 l 0.34726,0.21084 v 3.50986 h 3.27422 v 1.5503 h -4.29121 v 4.14238 h -1.55029 v -3.12539 h -3.63389 l -0.22324,-0.34727 h 3.85713 v -0.66972 h -4.26641 v -1.5503 h 4.26641 z m 2.56728,6.98252 v 4.41523 h -1.6123 l -0.27286,-0.28525 h 1.5379 v -4.47725 h 4.34082 v -1.53789 l 0.28525,0.27285 v 1.61231 z"
         style="font-style:normal;font-variant:normal;font-weight:normal;font-stretch:normal;font-size:25.39999962px;line-height:3.25;font-family:Algerian;-inkscape-font-specification:Algerian;fill:#ff8801;fill-opacity:1;stroke-width:0.26458332"
         id="path4915"
         inkscape:connector-curvature="0" />
    </g>
    <path
       style="fill:url(#linearGradient1040);fill-opacity:1;stroke:none;stroke-width:0.5;stroke-linecap:butt;stroke-linejoin:miter;stroke-miterlimit:4;stroke-dasharray:none;stroke-opacity:1"
       d="m 51.693977,106.49999 c -0.478555,-0.002 -0.949812,4.8e-4 -1.410248,0.003 -3.630073,0.14053 -9.273312,-0.003 -11.430312,2.64583 l 0.791683,-2.51819 c -3.684,1.19124 -5.603472,1.55713 -8.273912,2.71095 -2.5342,1.09492 -5.399823,1.95233 -7.293612,3.97133 -2.578622,2.74912 -1.991591,7.85113 -4.76095,10.25622 -2.73087,2.37165 -4.945446,4.82037 -5.973797,7.93492 -1.064239,3.26785 -1.617223,5.57606 -0.972031,8.17986 3.564739,-5.23519 7.210536,-8.3682 13.711306,-11.2019 -4.137261,3.76886 -8.285641,9.21875 -7.916312,14.7128 0,0 8.177458,-8.75294 13.016259,-8.68784 4.8388,0.0651 6.247497,6.47218 6.666777,9.58184 0.642919,4.76814 -1.042543,9.00594 -2.957443,11.74554 -3.431688,4.90965 -5.568074,7.24858 -11.669054,13.48238 9.297969,0.70259 17.552702,-1.72576 20.001362,-4.90255 1.772722,4.68715 0.755481,5.03235 7.036779,10.80451 6.281304,-5.77216 5.263544,-6.11735 7.036263,-10.80451 2.448661,3.17679 10.703396,5.60514 20.001365,4.90255 -6.10098,-6.2338 -8.237366,-8.57273 -11.669056,-13.48238 -1.914901,-2.7396 -3.60036,-6.9774 -2.957442,-11.74554 0.41928,-3.10966 1.827978,-9.51675 6.666775,-9.58184 4.838801,-0.0651 13.016262,8.68784 13.016262,8.68784 0.369329,-5.49405 -3.779057,-10.94394 -7.916315,-14.7128 6.500768,2.8337 10.14657,5.96671 13.711309,11.2019 0.645189,-2.6038 0.09221,-4.91201 -0.972034,-8.17986 -1.028351,-3.11455 -3.242924,-5.56327 -5.973794,-7.93492 -2.76936,-2.40509 -2.182329,-7.5071 -4.76095,-10.25622 -1.893789,-2.019 -4.759412,-2.87641 -7.293612,-3.97133 -2.67044,-1.15382 -4.589915,-1.51971 -8.273915,-2.71095 l 0.791683,2.51819 c -2.135761,-2.64883 -6.62314,-2.63153 -9.973034,-2.64893 z m -21.853446,9.28367 c 0,0 -0.554289,3.43999 -1.879989,3.80804 -1.031819,0.28648 -2.68924,-1.81126 -2.68924,-1.81126 0,0 1.531379,-0.0717 2.291849,-0.32763 0.739619,-0.24896 2.27738,-1.66915 2.27738,-1.66915 z m 40.839369,0 c 0,0 1.537758,1.4202 2.277379,1.66915 0.760468,0.25597 2.29185,0.32763 2.29185,0.32763 0,0 -1.657421,2.09774 -2.689243,1.81126 -1.3257,-0.36806 -1.879986,-3.80804 -1.879986,-3.80804 z"
       id="path986"
       inkscape:connector-curvature="0"
       sodipodi:nodetypes="cccccccccccsccccccccccccccccccccccccccccccc" />
    <path
       inkscape:connector-curvature="0"
       id="path4827"
       d="m 44.127474,107.33817 c -0.179747,-0.0777 -0.344167,-0.37066 -0.344167,-0.61323 0,-0.0675 0.07767,-0.21312 0.172597,-0.32366 l 0.172596,-0.20097 h 6.212916 c 6.155295,0 6.214348,0.002 6.366811,0.16694 0.202922,0.22014 0.205883,0.65354 0.006,0.86432 -0.142914,0.15062 -0.358217,0.15649 -6.275717,0.17089 -3.807493,0.009 -6.197099,-0.0151 -6.310939,-0.0643 z m -0.310422,-1.4854 c -0.01783,-0.0565 -0.07963,-0.50809 -0.137285,-1.00345 -0.05767,-0.49536 -0.213984,-1.76651 -0.347379,-2.82479 -0.133389,-1.05828 -0.26253,-2.089948 -0.286972,-2.292594 -0.08208,-0.68057 -0.1029,-0.73319 -0.335662,-0.84867 -0.39247,-0.194704 -0.578873,-0.501663 -0.578873,-0.953236 0,-0.738751 0.519739,-1.186844 1.118624,-0.964419 0.700273,0.260083 0.817506,1.442195 0.181034,1.825446 -0.263154,0.158459 -0.262496,0.255869 0.0082,1.202324 0.651192,2.277309 1.590017,3.217239 2.489272,2.492219 0.55967,-0.45124 1.011608,-1.43366 1.402603,-3.048984 l 0.160671,-0.663767 -0.243949,-0.226655 c -0.351403,-0.326466 -0.479107,-0.722201 -0.364068,-1.128087 0.133115,-0.469671 0.421079,-0.715658 0.837774,-0.715658 0.8107,0 1.183764,1.078316 0.595646,1.721672 -0.220694,0.241423 -0.21803,0.37251 0.02684,1.322235 0.781868,3.032414 2.073596,3.855964 3.132982,1.997504 0.300997,-0.52804 0.616361,-1.41949 0.82819,-2.341074 l 0.154749,-0.673243 -0.191372,-0.162325 c -0.375938,-0.31888 -0.502477,-0.901604 -0.296505,-1.365408 0.146055,-0.328876 0.408665,-0.499361 0.769204,-0.499361 0.817012,0 1.165854,1.120053 0.552568,1.774169 l -0.246073,0.262456 0.149059,0.643262 c 1.008261,4.351094 2.961961,4.457184 4.013647,0.21796 0.0794,-0.32009 0.144378,-0.60469 0.144378,-0.63245 0,-0.0278 -0.09633,-0.10848 -0.214058,-0.179378 -0.280926,-0.169158 -0.488512,-0.577417 -0.48884,-0.9614 -2.12e-4,-0.23505 0.05504,-0.378506 0.232627,-0.604156 0.194599,-0.247262 0.291561,-0.302476 0.589784,-0.335842 0.329897,-0.03692 0.376638,-0.01888 0.617836,0.238517 0.491524,0.524518 0.382469,1.332865 -0.228809,1.695993 l -0.270454,0.160666 -0.08696,0.80471 c -0.04781,0.442574 -0.236365,2.002174 -0.418983,3.465744 l -0.33203,2.66104 -6.452477,0.021 c -5.125324,0.0166 -6.459151,-2.5e-4 -6.484917,-0.0819 z"
       style="fill:#ff8801;fill-opacity:1;stroke-width:0.07587724" />
  </g>
</svg>
