<?xml version="1.0" encoding="UTF-8" standalone="no"?>
<!-- Created with Inkscape (http://www.inkscape.org/) -->

<svg
   xmlns:dc="http://purl.org/dc/elements/1.1/"
   xmlns:cc="http://creativecommons.org/ns#"
   xmlns:rdf="http://www.w3.org/1999/02/22-rdf-syntax-ns#"
   xmlns:svg="http://www.w3.org/2000/svg"
   xmlns="http://www.w3.org/2000/svg"
   xmlns:xlink="http://www.w3.org/1999/xlink"
   xmlns:sodipodi="http://sodipodi.sourceforge.net/DTD/sodipodi-0.dtd"
   xmlns:inkscape="http://www.inkscape.org/namespaces/inkscape"
   width="79.375mm"
   height="79.375mm"
   viewBox="0 0 79.375 79.375"
   version="1.1"
   id="svg8"
   inkscape:version="0.92.3 (2405546, 2018-03-11)"
   sodipodi:docname="griffin+_logo.svg">
  <defs
     id="defs2">
    <inkscape:path-effect
       only_selected="false"
       apply_with_weight="true"
       apply_no_weight="true"
       helper_size="0"
       steps="2"
       weight="33.333333"
       is_visible="true"
       id="path-effect4883"
       effect="bspline" />
    <inkscape:path-effect
       only_selected="false"
       apply_with_weight="true"
       apply_no_weight="true"
       helper_size="0"
       steps="2"
       weight="33.333333"
       is_visible="true"
       id="path-effect4762"
       effect="bspline" />
    <inkscape:path-effect
       only_selected="false"
       apply_with_weight="true"
       apply_no_weight="true"
       helper_size="0"
       steps="2"
       weight="33.333333"
       is_visible="true"
       id="path-effect4755"
       effect="bspline" />
    <inkscape:path-effect
       only_selected="false"
       apply_with_weight="true"
       apply_no_weight="true"
       helper_size="0"
       steps="2"
       weight="33.333333"
       is_visible="true"
       id="path-effect4748"
       effect="bspline" />
    <inkscape:path-effect
       only_selected="false"
       apply_with_weight="true"
       apply_no_weight="true"
       helper_size="0"
       steps="2"
       weight="33.333333"
       is_visible="true"
       id="path-effect4691"
       effect="bspline" />
    <linearGradient
       gradientTransform="matrix(0.00510579,0,0,0.00510579,-100.30053,-23.885019)"
       id="id0"
       gradientUnits="userSpaceOnUse"
       x1="33985.801"
       y1="4471.1099"
       x2="23127.5"
       y2="22875">
      <stop
         offset="0"
         style="stop-color:#E9363B"
         id="stop187" />
      <stop
         offset="0.0705882"
         style="stop-color:#E9363B"
         id="stop189" />
      <stop
         offset="1"
         style="stop-color:#883032"
         id="stop191" />
    </linearGradient>
    <linearGradient
       id="linearGradient2434"
       inkscape:collect="always">
      <stop
         id="stop2430"
         offset="0"
         style="stop-color:#282828;stop-opacity:1" />
      <stop
         id="stop2432"
         offset="1"
         style="stop-color:#b42828;stop-opacity:1" />
    </linearGradient>
    <linearGradient
       gradientTransform="matrix(0.5325756,0,0,0.53857271,-7.7300395,37.728629)"
       y2="44.899578"
       x2="96.230667"
       y1="193.31335"
       x1="96.230675"
       gradientUnits="userSpaceOnUse"
       id="linearGradient1051"
       xlink:href="#linearGradient2434"
       inkscape:collect="always" />
    <linearGradient
       gradientTransform="matrix(0.22515945,0,0,0.22515945,-37.818364,-25.376365)"
       gradientUnits="userSpaceOnUse"
       y2="452.84134"
       x2="361.13425"
       y1="712.84131"
       x1="361.13425"
       id="linearGradient1040"
       xlink:href="#linearGradient2434"
       inkscape:collect="always" />
  </defs>
  <sodipodi:namedview
     id="base"
     pagecolor="#ffffff"
     bordercolor="#666666"
     borderopacity="1.0"
     inkscape:pageopacity="0.0"
     inkscape:pageshadow="2"
     inkscape:zoom="0.98994949"
     inkscape:cx="143.63483"
     inkscape:cy="41.403325"
     inkscape:document-units="mm"
     inkscape:current-layer="layer1"
     showgrid="false"
     inkscape:window-width="1920"
     inkscape:window-height="1017"
     inkscape:window-x="-8"
     inkscape:window-y="-8"
     inkscape:window-maximized="1" />
  <metadata
     id="metadata5">
    <rdf:RDF>
      <cc:Work
         rdf:about="">
        <dc:format>image/svg+xml</dc:format>
        <dc:type
           rdf:resource="http://purl.org/dc/dcmitype/StillImage" />
        <dc:title></dc:title>
      </cc:Work>
    </rdf:RDF>
  </metadata>
  <g
     inkscape:label="Ebene 1"
     inkscape:groupmode="layer"
     id="layer1"
     transform="translate(-3.8135285,-62.422232)">
    <circle
       style="opacity:1;fill:#ffffff;fill-opacity:1;fill-rule:evenodd;stroke:url(#linearGradient1051);stroke-width:2.67782879;stroke-linecap:round;stroke-linejoin:round;stroke-miterlimit:4;stroke-dasharray:none;stroke-dashoffset:50;stroke-opacity:1;paint-order:normal"
       id="path817-3"
       cx="43.50103"
       cy="102.10973"
       r="38.348587" />
    <path
       style="opacity:1;fill:#000000;fill-opacity:0;fill-rule:evenodd;stroke:#c10707;stroke-width:0;stroke-linecap:butt;stroke-linejoin:round;stroke-miterlimit:4;stroke-dasharray:none;stroke-dashoffset:188.97637939;stroke-opacity:1;paint-order:markers fill stroke"
       d="m 55.136902,95.829565 c -0.09598,0.02544 0.06689,0.17768 0,0 z"
       id="path1139"
       inkscape:connector-curvature="0"
       sodipodi:nodetypes="cc" />
    <path
       style="opacity:1;fill:#000000;fill-opacity:0;fill-rule:evenodd;stroke:#c10707;stroke-width:0;stroke-linecap:butt;stroke-linejoin:round;stroke-miterlimit:4;stroke-dasharray:none;stroke-dashoffset:188.97637939;stroke-opacity:1;paint-order:markers fill stroke"
       d="m 55.136902,95.829565 c -0.09598,0.02544 0.06689,0.17768 0,0 z"
       id="path1143"
       inkscape:connector-curvature="0"
       sodipodi:nodetypes="cc" />
    <path
       style="fill:url(#linearGradient1040);fill-opacity:1;stroke:none;stroke-width:0.42549819;stroke-linecap:butt;stroke-linejoin:miter;stroke-miterlimit:4;stroke-dasharray:none;stroke-opacity:1"
       d="m 44.731159,76.545673 c -0.407248,-0.0017 -0.808286,4.09e-4 -1.200115,0.0025 -3.08918,0.119591 -7.891555,-0.0025 -9.727154,2.251592 l 0.67372,-2.142971 c -3.135071,1.013741 -4.768535,1.325113 -7.04107,2.307009 -2.156595,0.931773 -4.595229,1.661426 -6.206838,3.379587 -2.194398,2.339492 -1.694836,6.681284 -4.05155,8.728007 -2.323961,2.018265 -4.208558,4.102116 -5.08368,6.752588 -0.905664,2.780925 -1.376251,4.745205 -0.827195,6.961025 3.03358,-4.45513 6.13614,-7.121302 11.668272,-9.532771 -3.520794,3.207287 -7.051051,7.845121 -6.736753,12.520531 0,0 6.958987,-7.44872 11.076789,-7.39332 4.117802,0.0554 5.316597,5.50781 5.673403,8.15411 0.547122,4.05768 -0.887201,7.66402 -2.516773,9.99541 -2.920354,4.1781 -4.738411,6.16852 -9.930323,11.47346 7.912538,0.5979 14.937286,-1.46862 17.021087,-4.17205 1.508579,3.98874 0.642911,4.28251 5.988273,9.1946 5.345367,-4.91209 4.479257,-5.20585 5.987834,-9.1946 2.083802,2.70343 9.108552,4.76995 17.021089,4.17205 -5.191911,-5.30494 -7.009969,-7.29536 -9.930324,-11.47346 -1.629574,-2.33139 -3.063893,-5.93773 -2.516772,-9.99541 0.356806,-2.6463 1.555602,-8.09871 5.673402,-8.15411 4.117801,-0.0554 11.076791,7.39332 11.076791,7.39332 0.314297,-4.67541 -3.215964,-9.313244 -6.736755,-12.520531 5.532129,2.411469 8.634694,5.077641 11.668273,9.532771 0.549054,-2.21582 0.07847,-4.1801 -0.827197,-6.961025 -0.875123,-2.650472 -2.759716,-4.734323 -5.083677,-6.752588 -2.356715,-2.046723 -1.857154,-6.388515 -4.05155,-8.728007 -1.611608,-1.718161 -4.050243,-2.447814 -6.206838,-3.379587 -2.272535,-0.981896 -3.906001,-1.293268 -7.041072,-2.307009 l 0.673719,2.142971 c -1.817524,-2.254138 -5.636268,-2.239416 -8.487016,-2.254223 z m -18.597203,7.900369 c 0,0 -0.471698,2.92742 -1.599863,3.240629 -0.878075,0.243793 -2.288534,-1.541376 -2.288534,-1.541376 0,0 1.303198,-0.06101 1.950355,-0.278812 0.629413,-0.211864 1.938042,-1.420441 1.938042,-1.420441 z m 34.754155,0 c 0,0 1.308627,1.208586 1.938041,1.420441 0.647156,0.21783 1.950357,0.278812 1.950357,0.278812 0,0 -1.410459,1.785169 -2.288536,1.541376 -1.128166,-0.313218 -1.599862,-3.240629 -1.599862,-3.240629 z"
       id="path986"
       inkscape:connector-curvature="0"
       sodipodi:nodetypes="cccccccccccsccccccccccccccccccccccccccccccc" />
    <path
       inkscape:connector-curvature="0"
       id="path4827"
       d="m 38.292094,77.258961 c -0.152965,-0.06612 -0.292885,-0.31543 -0.292885,-0.521856 0,-0.05744 0.06609,-0.181365 0.146879,-0.275434 l 0.146878,-0.171025 h 5.287169 c 5.238134,0 5.288388,0.0017 5.418133,0.142066 0.172686,0.187338 0.175206,0.55616 0.0051,0.735533 -0.121619,0.128177 -0.304841,0.133173 -5.340612,0.145427 -3.240163,0.0076 -5.273708,-0.01285 -5.370586,-0.05472 z m -0.264169,-1.264069 c -0.01518,-0.04808 -0.06777,-0.432383 -0.116829,-0.853933 -0.04907,-0.42155 -0.1821,-1.503293 -0.295618,-2.403886 -0.113514,-0.900593 -0.223413,-1.778538 -0.244213,-1.950989 -0.06985,-0.579163 -0.08757,-0.623942 -0.285646,-0.722215 C 36.751628,69.898177 36.593,69.636955 36.593,69.252668 c 0,-0.628674 0.442295,-1.01 0.951945,-0.820717 0.59593,0.22133 0.695694,1.227303 0.154059,1.553448 -0.223944,0.134848 -0.223383,0.217744 0.007,1.023173 0.554162,1.937982 1.353099,2.737859 2.118362,2.120869 0.476277,-0.384002 0.860874,-1.220038 1.19361,-2.594673 l 0.13673,-0.564864 -0.2076,-0.192882 c -0.299043,-0.277822 -0.407718,-0.614591 -0.30982,-0.959998 0.113281,-0.399689 0.358336,-0.609022 0.712942,-0.609022 0.689903,0 1.00738,0.917643 0.506893,1.465136 -0.187809,0.20545 -0.185543,0.317004 0.02284,1.125217 0.665367,2.580574 1.764623,3.281411 2.666156,1.699869 0.256147,-0.44936 0.524522,-1.207981 0.704787,-1.992246 l 0.13169,-0.572927 -0.162857,-0.138138 c -0.319921,-0.271365 -0.427605,-0.767261 -0.252324,-1.161957 0.124292,-0.279872 0.347773,-0.424954 0.65459,-0.424954 0.695274,0 0.992138,0.953161 0.470233,1.509811 l -0.209407,0.223348 0.126849,0.547415 c 0.858026,3.702765 2.520618,3.793047 3.415599,0.185483 0.06757,-0.272396 0.122865,-0.514589 0.122865,-0.538213 0,-0.02365 -0.08198,-0.09232 -0.182163,-0.15265 -0.239066,-0.143953 -0.415722,-0.49138 -0.416,-0.818148 -1.81e-4,-0.200027 0.04684,-0.322107 0.197964,-0.514135 0.165603,-0.210419 0.248117,-0.257406 0.501904,-0.2858 0.280741,-0.03142 0.320517,-0.01607 0.525777,0.202977 0.418285,0.446363 0.325479,1.134264 -0.194717,1.443284 l -0.230155,0.136726 -0.07401,0.684806 c -0.04069,0.376628 -0.201145,1.703842 -0.356552,2.949335 l -0.282557,2.264536 -5.491034,0.01787 c -4.361632,0.01412 -5.496714,-2.13e-4 -5.518641,-0.06969 z"
       style="fill:#ff8801;fill-opacity:1;stroke-width:0.06457125" />
  </g>
</svg>
